<?xml version="1.0" encoding="UTF-8" standalone="no"?>
<!-- Generator: Adobe Illustrator 26.3.1, SVG Export Plug-In . SVG Version: 6.00 Build 0)  -->

<svg
   version="1.1"
   id="Camada_1"
   x="0px"
   y="0px"
   viewBox="0 0 600 180"
   xml:space="preserve"
   sodipodi:docname="mashup-logo.svg"
   width="600"
   height="180"
   inkscape:version="1.2 (dc2aedaf03, 2022-05-15)"
   xmlns:inkscape="http://www.inkscape.org/namespaces/inkscape"
   xmlns:sodipodi="http://sodipodi.sourceforge.net/DTD/sodipodi-0.dtd"
   xmlns="http://www.w3.org/2000/svg"
   xmlns:svg="http://www.w3.org/2000/svg"><defs
   id="defs208">
	
	
	

		<linearGradient
   id="SVGID_1_"
   gradientUnits="userSpaceOnUse"
   x1="302.33871"
   y1="519.02008"
   x2="309.72879"
   y2="519.02008"
   gradientTransform="matrix(1.060932,0,0,1.060932,-272.90338,-436.40051)">
			<stop
   offset="0"
   style="stop-color:#2CAAE1"
   id="stop90" />
			<stop
   offset="1"
   style="stop-color:#143D6A"
   id="stop92" />
		</linearGradient>
		
		
			<linearGradient
   id="SVGID_00000126316543283970471420000011294415629035123389_"
   gradientUnits="userSpaceOnUse"
   x1="270.59119"
   y1="544.83508"
   x2="312.67871"
   y2="544.83508"
   gradientTransform="matrix(1.060932,0,0,1.060932,-272.90338,-436.40051)">
			<stop
   offset="0"
   style="stop-color:#2CAAE1"
   id="stop97" />
			<stop
   offset="1"
   style="stop-color:#143D6A"
   id="stop99" />
		</linearGradient>
		
		
		
		
		
			<linearGradient
   id="SVGID_00000108989791472553142200000017735253820761701301_"
   gradientUnits="userSpaceOnUse"
   x1="286.5488"
   y1="493.7301"
   x2="331.74869"
   y2="493.7301"
   gradientTransform="matrix(1.060932,0,0,1.060932,-272.90338,-436.40051)">
			<stop
   offset="0"
   style="stop-color:#2CAAE1"
   id="stop110" />
			<stop
   offset="1"
   style="stop-color:#143D6A"
   id="stop112" />
		</linearGradient>
		
		
			<linearGradient
   id="SVGID_00000161626408256444146940000001993887989393692544_"
   gradientUnits="userSpaceOnUse"
   x1="322.80869"
   y1="493.6868"
   x2="343.3187"
   y2="493.6868"
   gradientTransform="matrix(1.060932,0,0,1.060932,-272.90338,-436.40051)">
			<stop
   offset="0"
   style="stop-color:#2CAAE1"
   id="stop117" />
			<stop
   offset="1"
   style="stop-color:#143D6A"
   id="stop119" />
		</linearGradient>
		
		
		
		
		
		
		
		
		
		
		
			<linearGradient
   id="SVGID_00000036229065875294729080000016946781592439197834_"
   gradientUnits="userSpaceOnUse"
   x1="344.20309"
   y1="480.95911"
   x2="358.85901"
   y2="494.26208"
   gradientTransform="matrix(1.060932,0,0,1.060932,-272.90338,-436.40051)">
			<stop
   offset="0"
   style="stop-color:#000000"
   id="stop149" />
			<stop
   offset="0.5307"
   style="stop-color:#FFFFFF"
   id="stop151" />
			<stop
   offset="1"
   style="stop-color:#000000"
   id="stop153" />
		</linearGradient>
		
		
			<linearGradient
   id="SVGID_00000130605225519342996460000013297456156186666627_"
   gradientUnits="userSpaceOnUse"
   x1="336.72589"
   y1="480.40881"
   x2="354.0892"
   y2="490.78171"
   gradientTransform="matrix(1.060932,0,0,1.060932,-272.90338,-436.40051)">
			<stop
   offset="0"
   style="stop-color:#000000"
   id="stop158" />
			<stop
   offset="0.5307"
   style="stop-color:#FFFFFF"
   id="stop160" />
			<stop
   offset="1"
   style="stop-color:#000000"
   id="stop162" />
		</linearGradient>
		
		
			<linearGradient
   id="SVGID_00000148657056044188378030000004679674107016327838_"
   gradientUnits="userSpaceOnUse"
   x1="346.57889"
   y1="472.6752"
   x2="390.77701"
   y2="474.70471"
   gradientTransform="matrix(1.060932,0,0,1.060932,-272.90338,-436.40051)">
			<stop
   offset="0"
   style="stop-color:#000000"
   id="stop167" />
			<stop
   offset="0.5307"
   style="stop-color:#FFFFFF"
   id="stop169" />
			<stop
   offset="1"
   style="stop-color:#000000"
   id="stop171" />
		</linearGradient>
		
		
			<linearGradient
   id="SVGID_00000103226488600807063870000012696793835588895389_"
   gradientUnits="userSpaceOnUse"
   x1="324.1557"
   y1="472.67419"
   x2="394.96289"
   y2="518.67627"
   gradientTransform="matrix(1.060932,0,0,1.060932,-272.90338,-436.40051)">
			<stop
   offset="0"
   style="stop-color:#000000"
   id="stop176" />
			<stop
   offset="0.5307"
   style="stop-color:#FFFFFF"
   id="stop178" />
			<stop
   offset="1"
   style="stop-color:#000000"
   id="stop180" />
		</linearGradient>
		
		
			<linearGradient
   id="SVGID_00000018219399065841400670000004343771207694022566_"
   gradientUnits="userSpaceOnUse"
   x1="307.52591"
   y1="501.19141"
   x2="382.8428"
   y2="501.19141"
   gradientTransform="matrix(1.060932,0,0,1.060932,-272.90338,-436.40051)">
			<stop
   offset="0"
   style="stop-color:#2CAAE1"
   id="stop185" />
			<stop
   offset="1"
   style="stop-color:#143D6A"
   id="stop187" />
		</linearGradient>
		
		
			<linearGradient
   id="SVGID_00000074423485840205225980000003904873128421045404_"
   gradientUnits="userSpaceOnUse"
   x1="278.97879"
   y1="525.98511"
   x2="367.1987"
   y2="525.98511"
   gradientTransform="matrix(1.060932,0,0,1.060932,-272.90338,-436.40051)">
			<stop
   offset="0"
   style="stop-color:#2CAAE1"
   id="stop192" />
			<stop
   offset="1"
   style="stop-color:#143D6A"
   id="stop194" />
		</linearGradient>
		
	</defs><sodipodi:namedview
   id="namedview206"
   pagecolor="#ffffff"
   bordercolor="#666666"
   borderopacity="1.0"
   inkscape:showpageshadow="2"
   inkscape:pageopacity="0.0"
   inkscape:pagecheckerboard="0"
   inkscape:deskcolor="#d1d1d1"
   showgrid="false"
   inkscape:zoom="1.4620215"
   inkscape:cx="274.27777"
   inkscape:cy="200.40745"
   inkscape:window-width="1920"
   inkscape:window-height="1017"
   inkscape:window-x="-8"
   inkscape:window-y="-8"
   inkscape:window-maximized="1"
   inkscape:current-layer="Camada_1" />
<style
   type="text/css"
   id="style2">
	.st0{fill:none;stroke:#686E72;stroke-width:1.3317;stroke-miterlimit:10;}
	.st1{fill:#686E72;}
	.st2{fill:#F4CC00;}
	.st3{fill:url(#SVGID_1_);}
	.st4{fill:url(#SVGID_00000045617295591735483700000011184965681872627630_);}
	.st5{fill:#FFFFFF;}
	.st6{fill:url(#SVGID_00000101064481345972320620000008127669660581071531_);}
	.st7{fill:url(#SVGID_00000108288907859177336270000011961903343774127502_);}
	.st8{fill:#5CBCB6;}
	.st9{fill:url(#SVGID_00000049207514430712767970000006835521454093074336_);}
	.st10{fill:url(#SVGID_00000057125674679680134920000002897272652589856404_);}
	.st11{fill:url(#SVGID_00000082326105872318390160000009891783577503954865_);}
	.st12{fill:url(#SVGID_00000020385407549241640360000003949485287370294945_);}
	.st13{fill:url(#SVGID_00000078023535841642430970000009873265955490429064_);}
	.st14{fill:url(#SVGID_00000039813527826246310790000013944846317877831604_);}
	.st15{fill:url(#SVGID_00000039131638341471014760000001270036637614203533_);}
</style>
<ellipse
   style="fill:none;stroke:#2ba5dc;stroke-width:2.36359;stroke-linecap:round;stroke-dasharray:none;stroke-opacity:1"
   id="path403"
   cx="86.042427"
   cy="85.859314"
   rx="64.407928"
   ry="63.99155" /><g
   id="g1552"><g
     id="g88"
     transform="matrix(1.060932,0,0,1.060932,-272.90338,-436.40051)">
		<g
   id="g32">
			<polygon
   class="st0"
   points="474.04,455.76 450.67,455.76 450.67,461.55 459.35,461.55 459.35,487.64 465.36,487.64 465.36,461.55 474.04,461.55 "
   id="polygon4" />
			<path
   class="st0"
   d="m 494.36,474.49 c 0.74,-0.2 1.44,-0.48 2.08,-0.86 1.34,-0.79 2.38,-1.91 3.11,-3.35 0.73,-1.44 1.09,-3.11 1.09,-5.01 0,-1.9 -0.36,-3.57 -1.09,-5.01 -0.73,-1.44 -1.76,-2.55 -3.09,-3.34 -1.33,-0.79 -2.88,-1.18 -4.63,-1.18 h -13.97 v 31.9 h 6.01 v -12.83 h 3.65 l 7.18,12.83 h 7.28 z m -1.39,-5.93 c -0.47,0.31 -1.01,0.46 -1.62,0.46 h -7.48 v -7.5 h 7.48 c 0.63,0 1.17,0.16 1.64,0.46 0.47,0.31 0.83,0.75 1.09,1.32 0.25,0.57 0.38,1.23 0.38,1.97 -0.01,0.75 -0.15,1.41 -0.4,1.98 -0.26,0.57 -0.62,1.01 -1.09,1.31 z"
   id="path6" />
			<path
   class="st0"
   d="m 521.53,455.76 h -3.82 l -12.19,31.88 h 6.47 l 1.79,-5.11 h 11.68 l 1.79,5.11 h 6.47 z m -5.72,20.98 3.81,-10.87 3.81,10.87 z"
   id="path8" />
			<polygon
   class="st0"
   points="538.16,455.76 538.16,487.61 543.9,487.61 543.9,464.64 555.19,487.61 562.58,487.61 562.58,455.76 556.84,455.76 556.84,479.1 545.5,455.76 "
   id="polygon10" />
			<path
   class="st0"
   d="m 586.95,470.41 c -1.35,-0.56 -3.04,-1.04 -5.05,-1.44 -0.09,-0.01 -0.17,-0.03 -0.25,-0.05 -0.08,-0.02 -0.17,-0.04 -0.25,-0.05 -0.06,-0.01 -0.12,-0.03 -0.18,-0.03 -0.06,-0.01 -0.12,-0.02 -0.18,-0.03 -1.4,-0.28 -2.49,-0.54 -3.27,-0.79 -0.77,-0.25 -1.42,-0.64 -1.95,-1.17 -0.53,-0.53 -0.79,-1.26 -0.79,-2.18 v -0.02 c 0,-1.1 0.5,-1.95 1.51,-2.55 1.01,-0.61 2.43,-0.91 4.28,-0.91 1.23,0 2.51,0.23 3.85,0.7 1.34,0.47 2.62,1.13 3.85,1.97 l 2.54,-5.09 c -1.02,-0.7 -2.1,-1.3 -3.24,-1.8 -1.14,-0.5 -2.31,-0.88 -3.5,-1.14 -1.19,-0.26 -2.36,-0.39 -3.5,-0.39 -2.49,0 -4.6,0.38 -6.36,1.15 -1.76,0.77 -3.09,1.88 -4.01,3.34 -0.92,1.46 -1.38,3.22 -1.38,5.28 v 0.02 c 0,2.32 0.49,4.12 1.47,5.38 0.98,1.26 2.17,2.15 3.57,2.65 1.4,0.5 3.17,0.92 5.31,1.26 l 0.48,0.07 c 0.04,0.01 0.08,0.02 0.12,0.02 0.04,0 0.08,0.01 0.12,0.02 1.21,0.19 2.21,0.4 2.98,0.64 0.77,0.23 1.4,0.6 1.89,1.1 0.48,0.5 0.72,1.17 0.72,2.02 v 0.02 c 0,1.21 -0.54,2.15 -1.62,2.82 -1.08,0.67 -2.6,1 -4.56,1 -1.7,0 -3.35,-0.27 -4.95,-0.82 -1.6,-0.55 -3.02,-1.33 -4.25,-2.33 l -2.78,4.95 c 1.01,0.83 2.15,1.55 3.43,2.14 1.28,0.59 2.65,1.04 4.1,1.35 1.46,0.31 2.94,0.46 4.46,0.46 2.56,0 4.75,-0.38 6.57,-1.14 1.82,-0.76 3.2,-1.86 4.15,-3.31 0.95,-1.45 1.43,-3.19 1.43,-5.22 v -0.04 c 0,-2.16 -0.45,-3.87 -1.36,-5.12 -0.91,-1.25 -2.04,-2.17 -3.4,-2.74 z"
   id="path12" />
			<path
   class="st0"
   d="m 618.45,460.41 c -0.83,-1.48 -2,-2.62 -3.52,-3.43 -1.51,-0.81 -3.26,-1.22 -5.25,-1.22 H 596.9 v 31.88 h 6.01 v -12.37 h 6.77 c 1.99,0 3.74,-0.4 5.25,-1.2 1.52,-0.81 2.69,-1.95 3.52,-3.41 0.83,-1.47 1.25,-3.18 1.25,-5.12 0,-1.95 -0.42,-3.66 -1.25,-5.13 z m -5.44,7.19 c -0.3,0.6 -0.73,1.06 -1.28,1.39 -0.55,0.33 -1.18,0.49 -1.9,0.49 h -6.92 v -7.93 h 6.92 c 0.74,0 1.38,0.16 1.92,0.49 0.55,0.33 0.97,0.8 1.27,1.4 0.3,0.61 0.45,1.31 0.45,2.1 0,0.77 -0.15,1.46 -0.46,2.06 z"
   id="path14" />
			<path
   class="st0"
   d="m 635.61,455.76 h -3.82 l -12.19,31.88 h 6.47 l 1.79,-5.11 h 11.68 l 1.79,5.11 h 6.46 z m -5.72,20.98 3.81,-10.87 3.81,10.87 z"
   id="path16" />
			<path
   class="st0"
   d="m 668.73,474.49 c 0.74,-0.2 1.44,-0.48 2.08,-0.86 1.34,-0.79 2.38,-1.91 3.11,-3.35 0.73,-1.44 1.09,-3.11 1.09,-5.01 0,-1.9 -0.36,-3.57 -1.09,-5.01 -0.73,-1.44 -1.77,-2.55 -3.09,-3.34 -1.33,-0.79 -2.88,-1.18 -4.63,-1.18 h -13.97 v 31.9 h 6.01 v -12.83 h 3.64 l 7.19,12.83 h 7.28 z m -1.39,-5.93 c -0.47,0.31 -1.01,0.46 -1.62,0.46 h -7.48 v -7.5 h 7.48 c 0.63,0 1.17,0.16 1.64,0.46 0.47,0.31 0.83,0.75 1.09,1.32 0.25,0.57 0.38,1.23 0.38,1.97 -0.01,0.75 -0.15,1.41 -0.4,1.98 -0.26,0.57 -0.62,1.01 -1.09,1.31 z"
   id="path18" />
			<polygon
   class="st0"
   points="692.39,450.32 696.66,453.61 700.15,450.54 692.39,444.53 684.62,450.54 688.11,453.61 "
   id="polygon20" />
			<polygon
   class="st0"
   points="702.73,481.85 687.39,481.85 687.39,474.7 700.32,474.7 700.32,468.91 687.39,468.91 687.39,461.55 702.73,461.55 702.73,455.76 687.39,455.76 683.55,455.76 681.38,455.76 681.38,487.64 683.55,487.64 687.39,487.64 702.73,487.64 "
   id="polygon22" />
			<polygon
   class="st0"
   points="707.91,455.76 707.91,487.61 713.66,487.61 713.66,464.64 724.95,487.61 732.34,487.61 732.34,455.76 726.59,455.76 726.59,479.1 715.26,455.76 "
   id="polygon24" />
			<path
   class="st0"
   d="m 745.11,464.15 c 0.42,-0.88 1.02,-1.56 1.81,-2.02 0.79,-0.46 1.75,-0.69 2.87,-0.69 0.86,0 1.64,0.2 2.34,0.59 0.69,0.4 1.28,0.96 1.77,1.71 0.49,0.75 0.85,1.64 1.09,2.7 h 6.23 c -0.4,-2.32 -1.11,-4.31 -2.14,-5.95 -1.03,-1.65 -2.34,-2.9 -3.91,-3.76 -1.58,-0.86 -3.37,-1.29 -5.37,-1.29 -2.43,0 -4.5,0.47 -6.23,1.4 -1.72,0.94 -3.04,2.29 -3.95,4.07 -0.91,1.78 -1.36,3.92 -1.36,6.43 v 8.75 c 0,2.51 0.45,4.66 1.36,6.43 0.91,1.78 2.22,3.13 3.95,4.05 1.72,0.93 3.8,1.39 6.23,1.39 2,0 3.79,-0.43 5.36,-1.29 1.57,-0.86 2.87,-2.12 3.9,-3.76 1.03,-1.64 1.75,-3.63 2.16,-5.95 h -6.23 c -0.22,1.07 -0.57,1.97 -1.05,2.72 -0.48,0.75 -1.07,1.31 -1.78,1.7 -0.7,0.39 -1.49,0.58 -2.37,0.58 -1.13,0 -2.08,-0.23 -2.87,-0.69 -0.79,-0.46 -1.39,-1.13 -1.81,-2.01 -0.42,-0.88 -0.63,-1.94 -0.63,-3.18 v -8.75 c 0,-1.24 0.21,-2.3 0.63,-3.18 z"
   id="path26" />
			<rect
   x="765.95001"
   y="455.76001"
   class="st0"
   width="6.23"
   height="31.879999"
   id="rect28" />
			<path
   class="st0"
   d="m 792.18,455.76 h -3.81 l -12.19,31.88 h 6.47 l 1.79,-5.11 h 11.68 l 1.79,5.11 h 6.46 z m -5.71,20.98 3.81,-10.87 3.81,10.87 z"
   id="path30" />
		</g>
		<path
   class="st1"
   d="m 455.71,494.75 v 63.95 h 12.05 v -63.95 z m 43.23,9.32 c -1.67,-2.96 -4.03,-5.25 -7.06,-6.88 -3.03,-1.63 -6.55,-2.44 -10.53,-2.44 H 461.2 v 11.61 h 20.46 c 1.46,0 2.74,0.33 3.84,0.99 1.1,0.66 1.95,1.6 2.55,2.82 0.61,1.21 0.91,2.61 0.91,4.19 0,1.56 -0.31,2.94 -0.93,4.14 -0.61,1.2 -1.47,2.13 -2.57,2.79 -1.1,0.66 -2.37,0.99 -3.8,0.99 H 461.2 v 11.61 h 20.15 c 3.98,0 7.5,-0.8 10.53,-2.42 3.03,-1.61 5.39,-3.89 7.06,-6.83 1.67,-2.95 2.51,-6.38 2.51,-10.28 0,-3.89 -0.84,-7.32 -2.51,-10.29 z"
   id="path34" />
		<path
   class="st1"
   d="m 570.31,494.75 v 63.95 h 12.05 v -63.95 z m 44.93,38.97 c -1.05,-2.14 -2.57,-3.88 -4.58,-5.22 -2.01,-1.33 -4.42,-2.19 -7.23,-2.57 2.63,-0.44 4.89,-1.27 6.77,-2.5 1.88,-1.24 3.31,-2.81 4.29,-4.73 0.98,-1.92 1.47,-4.13 1.47,-6.62 0,-3.64 -0.76,-6.75 -2.28,-9.35 -1.53,-2.59 -3.76,-4.57 -6.69,-5.93 -2.93,-1.37 -6.47,-2.05 -10.6,-2.05 h -20.8 v 11.61 h 20.4 c 2.5,0 4.42,0.57 5.79,1.72 1.36,1.14 2.04,2.74 2.04,4.79 0,2.29 -0.68,4.06 -2.04,5.32 -1.37,1.26 -3.29,1.89 -5.79,1.89 h -20.4 v 11.61 h 20.4 c 1.82,0 3.38,0.31 4.69,0.91 1.3,0.6 2.29,1.47 2.97,2.61 0.67,1.15 1.01,2.53 1.01,4.14 v 0.13 c 0,2.4 -0.76,4.27 -2.27,5.61 -1.51,1.33 -3.64,2 -6.4,2 h -20.4 v 11.61 h 21.55 c 4.13,0 7.67,-0.68 10.62,-2.05 2.95,-1.36 5.19,-3.35 6.73,-5.96 1.54,-2.6 2.31,-5.74 2.31,-9.41 v -0.13 c 0,-2.81 -0.52,-5.29 -1.56,-7.43 z"
   id="path36" />
		<path
   class="st1"
   d="m 627.52,494.75 v 63.95 h 12.05 v -63.95 z m 5.37,52.34 v 11.61 h 37.47 v -11.61 z"
   id="path38" />
		<path
   class="st1"
   d="M 678.81,494.75 V 558.7 H 691.3 V 494.75 Z"
   id="path40" />
		<path
   class="st1"
   d="m 733.78,542.73 c -0.97,1.5 -2.16,2.63 -3.56,3.41 -1.41,0.78 -3,1.17 -4.76,1.17 -2.25,0 -4.18,-0.46 -5.76,-1.39 -1.58,-0.92 -2.79,-2.26 -3.63,-4.02 -0.83,-1.76 -1.25,-3.89 -1.25,-6.38 v -17.55 c 0,-2.49 0.42,-4.62 1.25,-6.4 0.84,-1.77 2.05,-3.12 3.63,-4.04 1.58,-0.93 3.51,-1.39 5.76,-1.39 1.73,0 3.29,0.4 4.69,1.19 1.39,0.79 2.58,1.93 3.56,3.43 0.98,1.49 1.71,3.3 2.18,5.41 h 12.49 c -0.79,-4.66 -2.22,-8.64 -4.29,-11.94 -2.07,-3.3 -4.68,-5.81 -7.85,-7.54 -3.17,-1.73 -6.76,-2.6 -10.78,-2.6 -4.86,0 -9.03,0.94 -12.49,2.81 -3.46,1.88 -6.09,4.6 -7.91,8.16 -1.82,3.56 -2.73,7.87 -2.73,12.91 v 17.55 c 0,5.04 0.91,9.35 2.73,12.91 1.82,3.56 4.45,6.27 7.91,8.13 3.46,1.87 7.63,2.8 12.49,2.8 4.02,0 7.6,-0.87 10.76,-2.6 3.15,-1.73 5.76,-4.24 7.83,-7.54 2.06,-3.3 3.51,-7.28 4.33,-11.94 h -12.49 c -0.44,2.14 -1.15,3.96 -2.11,5.45 z"
   id="path42" />
		<path
   class="st1"
   d="m 784.95,494.75 h -7.65 l -24.45,63.95 h 12.97 l 3.59,-10.25 4.07,-11.61 7.65,-21.82 7.64,21.82 4.07,11.61 3.59,10.25 h 12.98 z m -20.36,42.09 v 11.61 h 33.65 v -11.61 z"
   id="path44" />
		<g
   id="g82">
			<path
   class="st1"
   d="m 451.69,432.4 v 12.8 h 1.27 v -12.8 z m 8.32,1.87 c -0.32,-0.59 -0.77,-1.05 -1.35,-1.38 -0.58,-0.32 -1.25,-0.49 -2.01,-0.49 h -4.03 v 1.18 h 4.09 c 0.5,0 0.94,0.12 1.32,0.35 0.38,0.22 0.68,0.55 0.88,0.96 0.21,0.41 0.32,0.89 0.32,1.44 0,0.54 -0.11,1.01 -0.32,1.42 -0.2,0.41 -0.5,0.73 -0.88,0.96 -0.38,0.23 -0.82,0.35 -1.32,0.35 h -4.09 v 1.17 h 4.03 c 0.76,0 1.43,-0.16 2.01,-0.48 0.58,-0.33 1.03,-0.79 1.35,-1.38 0.32,-0.59 0.48,-1.27 0.48,-2.04 0,-0.78 -0.16,-1.47 -0.48,-2.06 z"
   id="path46" />
			<path
   class="st1"
   d="m 463.12,432.39 v 12.81 h 1.27 v -12.81 z m 8.33,1.76 c -0.31,-0.56 -0.74,-0.99 -1.3,-1.3 -0.56,-0.3 -1.21,-0.46 -1.95,-0.46 h -4.29 v 1.18 h 4.36 c 0.48,0 0.9,0.11 1.26,0.32 0.36,0.2 0.64,0.5 0.84,0.88 0.19,0.38 0.29,0.82 0.29,1.32 0,0.5 -0.1,0.94 -0.3,1.32 -0.2,0.38 -0.48,0.68 -0.84,0.89 -0.36,0.2 -0.77,0.31 -1.25,0.31 h -4.36 v 1.18 h 4.29 c 0.47,0 0.9,-0.07 1.3,-0.2 0.22,-0.06 0.44,-0.15 0.64,-0.26 0.57,-0.31 1,-0.74 1.31,-1.3 0.31,-0.56 0.46,-1.21 0.46,-1.94 0,-0.73 -0.15,-1.38 -0.46,-1.94 z m -1.95,5.44 -0.32,-0.6 -1.18,0.4 0.2,0.4 2.74,5.41 h 1.51 z"
   id="path48" />
			<path
   class="st1"
   d="m 483.13,434.44 c -0.35,-0.71 -0.86,-1.25 -1.53,-1.61 -0.67,-0.37 -1.48,-0.56 -2.43,-0.56 -0.95,0 -1.77,0.19 -2.44,0.56 -0.67,0.36 -1.18,0.9 -1.53,1.61 -0.35,0.7 -0.53,1.55 -0.53,2.55 v 3.62 c 0,1 0.18,1.85 0.53,2.56 0.35,0.7 0.86,1.24 1.53,1.61 0.67,0.37 1.49,0.55 2.44,0.55 0.95,0 1.76,-0.18 2.43,-0.55 0.67,-0.37 1.18,-0.91 1.53,-1.61 0.36,-0.71 0.53,-1.56 0.53,-2.56 v -3.62 c 0,-1 -0.17,-1.85 -0.53,-2.55 z m -0.73,6.23 c 0,0.74 -0.13,1.37 -0.38,1.88 -0.26,0.52 -0.62,0.92 -1.11,1.19 -0.48,0.27 -1.06,0.41 -1.74,0.41 -0.69,0 -1.27,-0.14 -1.75,-0.41 -0.48,-0.27 -0.85,-0.67 -1.11,-1.19 -0.25,-0.51 -0.37,-1.14 -0.37,-1.88 v -3.74 c 0,-0.74 0.12,-1.36 0.37,-1.88 0.26,-0.52 0.63,-0.92 1.11,-1.19 0.48,-0.27 1.06,-0.41 1.75,-0.41 0.68,0 1.26,0.14 1.74,0.41 0.49,0.27 0.85,0.67 1.11,1.19 0.25,0.52 0.38,1.14 0.38,1.88 z"
   id="path50" />
			<path
   class="st1"
   d="m 490.97,438.66 v 1.18 h 3.1 v 0.73 c 0,0.83 -0.12,1.5 -0.35,2.03 -0.23,0.53 -0.58,0.92 -1.04,1.17 -0.46,0.25 -1.04,0.38 -1.75,0.38 -0.73,0 -1.34,-0.12 -1.82,-0.37 -0.48,-0.24 -0.85,-0.61 -1.09,-1.1 -0.24,-0.49 -0.36,-1.11 -0.36,-1.86 v -3.77 c 0,-0.8 0.12,-1.47 0.36,-2 0.24,-0.53 0.59,-0.93 1.07,-1.2 0.47,-0.27 1.07,-0.4 1.79,-0.4 0.53,0 1,0.1 1.4,0.29 0.4,0.19 0.74,0.48 1.01,0.87 0.27,0.39 0.49,0.88 0.64,1.46 h 1.37 c -0.16,-0.85 -0.43,-1.55 -0.82,-2.11 -0.38,-0.56 -0.87,-0.98 -1.47,-1.27 -0.59,-0.28 -1.31,-0.42 -2.13,-0.42 -1,0 -1.83,0.18 -2.5,0.53 -0.66,0.35 -1.16,0.88 -1.49,1.59 -0.33,0.7 -0.49,1.59 -0.49,2.66 v 3.77 c 0,1.01 0.16,1.84 0.5,2.51 0.33,0.66 0.84,1.16 1.51,1.5 0.67,0.33 1.51,0.5 2.52,0.5 1,0 1.83,-0.18 2.49,-0.53 0.66,-0.35 1.16,-0.88 1.49,-1.59 0.33,-0.71 0.5,-1.6 0.5,-2.67 v -1.88 z"
   id="path52" />
			<path
   class="st1"
   d="m 498.31,432.39 v 12.81 h 1.27 v -12.81 z m 8.33,1.76 c -0.31,-0.56 -0.74,-0.99 -1.3,-1.3 -0.56,-0.3 -1.21,-0.46 -1.95,-0.46 h -4.29 v 1.18 h 4.36 c 0.48,0 0.9,0.11 1.26,0.32 0.36,0.2 0.64,0.5 0.84,0.88 0.2,0.38 0.29,0.82 0.29,1.32 0,0.5 -0.1,0.94 -0.3,1.32 -0.2,0.38 -0.48,0.68 -0.84,0.89 -0.36,0.2 -0.77,0.31 -1.25,0.31 h -4.36 v 1.18 h 4.3 c 0.46,0 0.89,-0.07 1.29,-0.2 0.23,-0.06 0.44,-0.15 0.65,-0.26 0.56,-0.31 0.99,-0.74 1.3,-1.3 0.31,-0.56 0.46,-1.21 0.46,-1.94 0,-0.73 -0.15,-1.38 -0.46,-1.94 z m -1.95,5.44 -0.32,-0.6 -1.17,0.4 0.2,0.4 2.73,5.41 h 1.51 z"
   id="path54" />
			<path
   class="st1"
   d="m 515.89,432.4 h -1.54 l -4.71,12.8 h 1.41 l 1.1,-3.11 0.42,-1.18 2.55,-7.18 2.55,7.18 0.42,1.18 1.1,3.11 h 1.41 z m -4.08,8.51 v 1.18 h 6.73 v -1.18 z"
   id="path56" />
			<path
   class="st1"
   d="m 532.53,432.4 -4.11,9.24 -4.11,-9.24 h -1.33 v 12.8 h 1.27 v -9.94 l 3.72,8.16 h 0.9 l 3.72,-8.36 v 10.14 h 1.26 v -12.8 z"
   id="path58" />
			<path
   class="st1"
   d="m 542.48,432.4 h -1.53 l -4.72,12.8 h 1.41 l 1.1,-3.11 0.42,-1.18 2.55,-7.18 2.55,7.18 0.42,1.18 1.11,3.11 h 1.41 z m -4.07,8.51 v 1.18 h 6.73 v -1.18 z"
   id="path60" />
			<path
   class="st1"
   d="m 562.16,432.4 v 10.72 l -6.91,-10.72 h -1.28 v 12.79 h 1.27 v -10.56 l 6.89,10.56 h 1.29 V 432.4 Z"
   id="path62" />
			<path
   class="st1"
   d="m 572.05,432.4 h -1.53 l -4.72,12.8 h 1.41 l 1.1,-3.11 0.42,-1.18 2.55,-7.18 2.55,7.18 0.42,1.18 1.11,3.11 h 1.41 z m -4.07,8.51 v 1.18 h 6.73 v -1.18 z"
   id="path64" />
			<path
   class="st1"
   d="m 585.34,443.02 c -0.32,0.36 -0.69,0.65 -1.12,0.84 -0.43,0.19 -0.87,0.29 -1.33,0.29 -0.63,0 -1.19,-0.15 -1.67,-0.44 -0.48,-0.3 -0.85,-0.72 -1.12,-1.26 -0.26,-0.54 -0.39,-1.17 -0.39,-1.89 v -3.51 c 0,-0.72 0.13,-1.35 0.39,-1.89 0.27,-0.54 0.64,-0.96 1.12,-1.26 0.48,-0.3 1.04,-0.45 1.67,-0.45 0.46,0 0.9,0.1 1.33,0.31 0.43,0.2 0.8,0.49 1.12,0.86 0.32,0.37 0.55,0.8 0.69,1.28 h 1.27 c -0.15,-0.73 -0.43,-1.36 -0.84,-1.91 -0.41,-0.55 -0.93,-0.97 -1.54,-1.27 -0.62,-0.3 -1.3,-0.45 -2.03,-0.45 -0.88,0 -1.66,0.2 -2.34,0.6 -0.67,0.39 -1.19,0.95 -1.56,1.67 -0.37,0.72 -0.55,1.56 -0.55,2.51 v 3.51 c 0,0.95 0.18,1.79 0.55,2.51 0.37,0.72 0.89,1.28 1.56,1.67 0.68,0.39 1.46,0.59 2.34,0.59 0.73,0 1.4,-0.15 2.02,-0.45 0.61,-0.3 1.13,-0.72 1.55,-1.27 0.41,-0.55 0.69,-1.18 0.84,-1.91 h -1.27 c -0.14,0.51 -0.37,0.95 -0.69,1.32 z"
   id="path66" />
			<path
   class="st1"
   d="m 590.25,432.4 v 12.8 h 1.27 v -12.8 z"
   id="path68" />
			<path
   class="st1"
   d="m 603.25,434.44 c -0.36,-0.71 -0.87,-1.25 -1.54,-1.61 -0.67,-0.37 -1.48,-0.56 -2.43,-0.56 -0.95,0 -1.76,0.19 -2.44,0.56 -0.67,0.36 -1.18,0.9 -1.53,1.61 -0.35,0.7 -0.53,1.55 -0.53,2.55 v 3.62 c 0,1 0.18,1.85 0.53,2.56 0.35,0.7 0.86,1.24 1.53,1.61 0.68,0.37 1.49,0.55 2.44,0.55 0.95,0 1.76,-0.18 2.43,-0.55 0.67,-0.37 1.18,-0.91 1.54,-1.61 0.35,-0.71 0.52,-1.56 0.52,-2.56 v -3.62 c 0,-1 -0.17,-1.85 -0.52,-2.55 z m -0.74,6.23 c 0,0.74 -0.13,1.37 -0.38,1.88 -0.25,0.52 -0.62,0.92 -1.11,1.19 -0.48,0.27 -1.06,0.41 -1.74,0.41 -0.68,0 -1.27,-0.14 -1.75,-0.41 -0.48,-0.27 -0.85,-0.67 -1.1,-1.19 -0.26,-0.51 -0.38,-1.14 -0.38,-1.88 v -3.74 c 0,-0.74 0.12,-1.36 0.38,-1.88 0.25,-0.52 0.62,-0.92 1.1,-1.19 0.48,-0.27 1.07,-0.41 1.75,-0.41 0.68,0 1.26,0.14 1.74,0.41 0.49,0.27 0.86,0.67 1.11,1.19 0.25,0.52 0.38,1.14 0.38,1.88 z"
   id="path70" />
			<path
   class="st1"
   d="m 614.93,432.4 v 10.72 l -6.91,-10.72 h -1.27 v 12.79 h 1.26 v -10.58 l 6.9,10.58 h 1.29 V 432.4 Z"
   id="path72" />
			<path
   class="st1"
   d="m 624.82,432.4 h -1.53 l -4.71,12.8 h 1.4 l 1.11,-3.11 0.42,-1.18 2.55,-7.18 2.55,7.18 0.42,1.18 1.1,3.11 h 1.41 z m -4.07,8.51 v 1.18 h 6.73 v -1.18 z"
   id="path74" />
			<path
   class="st1"
   d="m 631.92,432.4 v 12.8 h 1.27 v -12.8 z m 0.9,11.62 v 1.18 h 7.32 v -1.18 z"
   id="path76" />
			<path
   class="st1"
   d="m 647.09,432.4 v 12.8 h 1.27 v -12.8 z m 8.39,2.04 c -0.36,-0.68 -0.9,-1.19 -1.62,-1.53 -0.72,-0.34 -1.63,-0.51 -2.71,-0.51 h -2.85 v 1.18 h 2.9 c 1.19,0 2.07,0.28 2.66,0.83 0.59,0.56 0.89,1.39 0.89,2.51 v 3.76 c 0,1.12 -0.3,1.95 -0.89,2.51 -0.59,0.55 -1.47,0.83 -2.66,0.83 h -2.9 v 1.18 h 2.84 c 1.08,0 1.99,-0.17 2.71,-0.51 0.72,-0.34 1.26,-0.85 1.62,-1.53 0.36,-0.68 0.54,-1.53 0.54,-2.55 v -3.62 c 0,-1.02 -0.17,-1.87 -0.53,-2.55 z"
   id="path78" />
			<path
   class="st1"
   d="m 658.99,432.4 v 12.8 h 1.27 v -12.8 z m 0.87,0 v 1.18 h 7.35 v -1.18 z m 0,5.86 v 1.17 h 6.38 v -1.17 z m 0,5.76 v 1.18 h 7.35 v -1.18 z"
   id="path80" />
		</g>
		<path
   class="st1"
   d="m 545.75,494.75 v 41.12 c 0,3.67 -0.99,6.51 -2.97,8.53 -1.98,2.03 -4.77,3.04 -8.38,3.04 -3.58,0 -6.35,-1.01 -8.31,-3.04 -1.96,-2.02 -2.95,-4.86 -2.95,-8.53 v -41.12 h -12.05 v 40.81 c 0,5.02 0.91,9.31 2.73,12.87 1.82,3.56 4.47,6.27 7.96,8.13 3.49,1.87 7.7,2.8 12.62,2.8 4.93,0 9.14,-0.93 12.65,-2.8 3.5,-1.86 6.17,-4.57 8,-8.13 1.83,-3.56 2.75,-7.85 2.75,-12.87 v -40.81 z"
   id="path84" />
		<path
   class="st2"
   d="m 554.51,494.75 -6.6,-6.78 -12.14,10.77 7.17,7.39 2.81,-2.15 10.16,-7.79 z"
   id="path86" />
	</g><g
     id="g1479"><path
       class="st3"
       d="m 47.858801,110.62664 v -0.74265 c 1.856631,2.48258 3.914839,4.86967 6.174624,7.11885 0.541075,0.55168 1.103369,1.08215 1.665663,1.60201 -4.349821,-0.0743 -7.840287,-3.61778 -7.840287,-7.97821 z"
       id="path95"
       style="fill:url(#SVGID_1_);stroke-width:1.06093" /><path
       style="fill:url(#SVGID_00000126316543283970471420000011294415629035123389_);stroke-width:1.06093"
       d="m 58.828838,130.86922 -4.880287,4.88029 -4.052761,4.06337 -25.748819,25.77004 -3.819356,-3.82997 c -8.201004,-8.19039 -8.201004,-21.50509 0,-29.69549 l 11.171614,-11.161 3.214624,-3.21462 c 0.190968,0.19096 0.392545,0.37132 0.594122,0.56229 1.814194,1.66566 3.734481,3.21462 5.750252,4.62566 0.678996,0.46681 1.368602,0.93362 2.047599,1.358 0.657777,0.42437 1.315555,0.80631 1.973333,1.17763 0.116703,0.0743 0.233405,0.13792 0.350108,0.19097 0.541075,0.32889 1.103369,0.62595 1.686881,0.9124 0.848746,0.44559 1.686882,0.84875 2.556847,1.22007 0.381935,0.15914 0.753261,0.35011 1.156415,0.48803 0.371327,0.19097 0.774481,0.32889 1.145807,0.47742 0.986667,0.39255 1.973334,0.74265 2.981219,1.07154 0.445591,0.14853 0.912401,0.30767 1.389821,0.42437 0.562294,0.19097 1.124588,0.32889 1.7081,0.47742 0.254624,0.0743 0.509248,0.13793 0.774481,0.20158 z"
       id="path102" /><path
       class="st5"
       d="M 47.858801,110.62664 V 79.923266 c 3.946667,-1.930896 8.391972,-3.013046 13.081291,-3.013046 0.360717,0 0.721434,0.01061 1.082151,0.03183 v 41.67341 h -6.164015 c -0.05305,0 -0.106093,0 -0.15914,-0.0106 -4.349821,-0.0743 -7.840287,-3.61778 -7.840287,-7.97821 z"
       id="path104"
       style="stroke-width:1.06093" /><path
       class="st5"
       d="m 71.347835,132.37574 c 1.792975,0 3.575341,-0.0849 5.325879,-0.27584 -4.572617,2.8433 -9.962151,4.48774 -15.733622,4.48774 -2.408315,0 -4.742366,-0.28645 -6.991541,-0.83813 -9.124016,-2.17491 -16.614196,-8.56172 -20.316848,-16.98552 -0.498638,-1.12459 -0.93362,-2.28101 -1.273119,-3.47986 0.753262,0.82753 1.538352,1.62323 2.355269,2.39771 0.190968,0.19096 0.392545,0.37132 0.594122,0.56229 1.814194,1.66566 3.734481,3.21462 5.750252,4.62566 0.678996,0.46681 1.368602,0.93362 2.047599,1.358 0.657777,0.42437 1.315555,0.80631 1.973333,1.17763 0.116703,0.0743 0.233405,0.13792 0.350108,0.19097 0.541075,0.32889 1.103369,0.62595 1.686881,0.9124 0.848746,0.44559 1.686882,0.84875 2.556847,1.22007 0.381935,0.15914 0.753261,0.35011 1.156415,0.48803 0.371327,0.19097 0.774481,0.32889 1.145807,0.47742 0.986667,0.39255 1.973334,0.74265 2.981219,1.07154 0.445591,0.14853 0.912401,0.30767 1.389821,0.42437 0.562294,0.19097 1.124588,0.32889 1.7081,0.47742 0.254624,0.0743 0.509248,0.13793 0.774481,0.20158 0.318279,0.0743 0.647168,0.14853 0.965448,0.21219 3.713262,0.84874 7.585664,1.29433 11.553549,1.29433 z"
       id="path106"
       style="stroke-width:1.06093" /><path
       class="st5"
       d="m 88.991135,96.56929 c -0.212187,0.01061 -0.413764,0.01061 -0.62595,0.01061 -0.350108,0 -0.700215,0 -1.029104,-0.02122 -0.16975,0.02122 -0.307671,0.02122 -0.47742,0.02122 -0.530466,0 -1.071541,-0.02122 -1.570179,-0.04244 -0.15914,0.02122 -0.350108,0.04244 -0.541075,0.04244 -0.445592,0 -0.869965,-0.09548 -1.198854,-0.286452 v 9.612042 c 0,7.03398 -5.675986,12.70997 -12.688746,12.70997 l -1.283728,-0.93362 V 78.193947 c 5.495628,1.644445 10.322868,4.84846 13.972474,9.092188 1.835413,2.111254 3.363155,4.487742 4.53018,7.055197 l 0.01061,0.01061 c 0.31828,0.689605 0.615341,1.40043 0.869965,2.121864 0.02122,0.03183 0.03183,0.06366 0.03183,0.09548 z"
       id="path108"
       style="stroke-width:1.06093" /><path
       style="fill:url(#SVGID_00000108989791472553142200000017735253820761701301_);stroke-width:1.06093"
       d="m 69.576079,57.028354 c 0.636559,-0.106093 1.326165,-0.212187 2.047599,-0.30767 0.05305,-0.01061 0.106093,-0.02122 0.159139,-0.02122 1.368603,-0.190968 2.885736,-0.350108 4.572617,-0.488029 H 35.456506 c -2.408316,0 -4.349821,1.941506 -4.349821,4.349821 v 7.50079 h 16.752116 v 42.564594 c 0,4.36043 3.490466,7.90394 7.840287,7.97821 0.05305,0.0106 0.106094,0.0106 0.15914,0.0106 h 6.164015 V 68.062047 h 17.038568 v -9.654482 c -5.30466,-1.113978 -9.484732,-1.379211 -9.484732,-1.379211 z"
       id="path115" /><path
       style="fill:url(#SVGID_00000161626408256444146940000001993887989393692544_);stroke-width:1.06093"
       d="m 91.038733,56.253874 c -0.678996,-0.04244 -1.379211,-0.04244 -2.090036,-0.04244 -2.02638,0 -3.967885,-0.04244 -5.792688,-0.08487 -0.541076,0.02122 -1.071542,0.04244 -1.591398,0.08487 -1.442868,0.116703 -2.779642,0 -3.999714,-0.06366 -0.413764,0.02122 -0.816918,0.04244 -1.209463,0.06366 -0.46681,0.05305 -0.912401,0.05305 -1.336774,0.05305 -0.02122,0 -0.02122,0 -0.04244,0 -0.562294,0 -1.113979,-0.02122 -1.633835,-0.05305 -1.2519,-0.06366 -2.397707,-0.15914 -3.43742,-0.02122 0.02122,0.01061 0.05305,0.02122 0.08487,0.02122 0.371327,0.106093 0.986667,0.275843 1.792975,0.488029 1.060932,0.265233 2.461363,0.615341 4.052761,0.986667 -1.686882,-0.381936 -3.140359,-0.710825 -4.2119,-0.965448 -1.283728,-0.31828 -2.047599,-0.509248 -2.047599,-0.509248 v 61.470406 l 1.283728,0.93362 c 7.01276,0 12.688746,-5.67599 12.688746,-12.70997 V 56.264483 h 7.787241 c -0.09548,-0.01061 -0.190968,-0.01061 -0.297061,-0.01061 z"
       id="path122" /><path
       class="st2"
       d="m 114.37924,75.19151 c 0,6.110968 -2.02638,11.298926 -5.72904,14.81061 -4.29677,4.042151 -10.471394,6.110969 -17.675123,6.503514 0,0 0,0 -0.03183,0 -0.636559,0.04244 -1.294337,0.06366 -1.952114,0.06366 -0.212187,0.01061 -0.413764,0.01061 -0.62595,0.01061 -0.350108,0 -0.700215,0 -1.029104,-0.02122 0.413763,0 0.869964,-0.02122 1.283727,-0.05305 0.03183,0 0.03183,0 0.03183,0 0.106093,-0.01061 0.201577,-0.02122 0.307671,-0.03183 4.816631,-0.445592 8.933047,-2.514409 11.829393,-6.471686 2.52502,-3.511684 3.91484,-8.699642 3.91484,-14.81061 0,-6.100359 -1.83541,-11.288317 -4.57262,-14.439285 -2.546236,-3.002437 -6.026093,-4.275556 -10.991255,-4.487742 -0.07426,0 -0.14853,-0.01061 -0.233405,-0.01061 h 2.440144 c 7.415914,0.180358 12.603876,1.453476 16.359566,4.498351 4.02094,3.150968 6.67327,8.338926 6.67327,14.439285 z"
       id="path124"
       style="stroke-width:1.06093" /><path
       class="st2"
       d="m 100.13092,60.752225 c -1.909677,-2.249176 -4.349821,-3.532903 -7.532617,-4.116416 -0.180358,-0.03183 -0.360717,-0.06366 -0.551684,-0.09548 -0.63656,-0.09548 -1.294337,-0.169749 -1.994552,-0.222796 -0.297061,-0.02122 -0.604732,-0.04244 -0.912402,-0.05305 -0.07426,0 -0.14853,-0.01061 -0.233405,-0.01061 h -5.357707 v 40.039573 c 0.594122,0.09548 1.209463,0.148531 1.920287,0.190968 h 0.01061 c 0.583512,0.05305 1.198853,0.07426 1.856631,0.07426 0.413763,0 0.869964,-0.02122 1.283727,-0.05305 0.03183,0 0.03183,0 0.03183,0 0.106093,-0.01061 0.201577,-0.02122 0.307671,-0.03183 0.297061,-0.03183 0.594121,-0.06366 0.891182,-0.106094 0.297061,-0.03183 0.594122,-0.08487 0.880574,-0.137921 0.286452,-0.05305 0.572903,-0.116702 0.859355,-0.180358 0.275842,-0.06366 0.551685,-0.137921 0.816918,-0.212187 0.509247,-0.14853 1.018494,-0.318279 1.495914,-0.509247 0.201577,-0.07427 0.403154,-0.15914 0.604731,-0.254624 0.594122,-0.254623 1.156416,-0.541075 1.7081,-0.880573 0.222796,-0.127312 0.445592,-0.265233 0.657778,-0.403154 0.753262,-0.509248 1.453477,-1.071542 2.121864,-1.71871 0.212187,-0.201577 0.413764,-0.424373 0.62595,-0.647169 0.01061,-0.01061 0.02122,-0.01061 0.02122,-0.02122 0.403155,-0.434982 0.785085,-0.901793 1.145805,-1.400431 2.52502,-3.511684 3.91484,-8.699642 3.91484,-14.81061 0,-6.100359 -1.83541,-11.288317 -4.57262,-14.439285 z m -1.983942,19.3514 c -0.541076,1.050323 -1.294337,1.856631 -2.259785,2.440143 -0.954839,0.583513 -2.090037,0.869965 -3.331327,0.869965 H 83.633428 V 69.42004 h 8.922438 c 1.294337,0 2.418925,0.30767 3.384373,0.869964 0.954839,0.583512 1.708101,1.411039 2.227957,2.482581 0.541076,1.060932 0.795699,2.302222 0.795699,3.692043 0,1.357993 -0.275842,2.578065 -0.816917,3.638997 z"
       id="path126"
       style="stroke-width:1.06093" /><path
       class="st8"
       d="m 104.70354,75.19151 c 0,6.110968 -1.38982,11.298926 -3.91484,14.81061 -0.36072,0.498638 -0.74265,0.965449 -1.145808,1.400431 0,0.01061 -0.01061,0.01061 -0.02122,0.02122 -0.212186,0.222796 -0.413763,0.445592 -0.62595,0.647169 -0.668387,0.647168 -1.368602,1.209462 -2.121864,1.71871 -0.212186,0.137921 -0.434982,0.275842 -0.657778,0.403154 -0.551684,0.339498 -1.113978,0.62595 -1.7081,0.880573 -0.201577,0.09548 -0.403154,0.180359 -0.604731,0.254624 -0.47742,0.190968 -0.986667,0.360717 -1.495914,0.509247 -0.265233,0.07427 -0.541076,0.148531 -0.816918,0.212187 -0.286452,0.06366 -0.572903,0.127312 -0.859355,0.180358 -0.286452,0.05305 -0.583513,0.106093 -0.880574,0.137921 -0.297061,0.04244 -0.594121,0.07427 -0.891182,0.106094 -0.106094,0.01061 -0.201578,0.02122 -0.307671,0.03183 0,0 0,0 -0.03183,0 -0.413763,0.03183 -0.869964,0.05305 -1.283727,0.05305 -0.16975,0.02122 -0.307671,0.02122 -0.47742,0.02122 -0.530466,0 -1.071541,-0.02122 -1.570179,-0.04244 0.05305,0 0.07426,-0.03183 0.116702,-0.03183 0.02122,0 0.04244,0 0.06366,-0.02122 h 0.01061 c 0.116702,-0.02122 0.233405,-0.06366 0.339498,-0.106093 0.116702,-0.03183 0.222796,-0.08487 0.328889,-0.137921 h 0.01061 c 0.01061,0 0.01061,-0.01061 0.02122,-0.01061 0.08487,-0.05305 0.190967,-0.09548 0.275842,-0.15914 0.212186,-0.127311 0.413764,-0.286451 0.615341,-0.46681 0.07426,-0.07426 0.137921,-0.137921 0.212186,-0.212186 0.02122,-0.02122 0.03183,-0.04244 0.04244,-0.05305 0.06366,-0.06366 0.116703,-0.116702 0.169749,-0.180358 0,-0.01061 0,-0.01061 0,-0.01061 0.05305,-0.05305 0.08487,-0.09548 0.116703,-0.148531 0.106093,-0.116702 0.201577,-0.244014 0.286452,-0.381935 0.07426,-0.08487 0.127311,-0.169749 0.190967,-0.265233 0.03183,-0.05305 0.06366,-0.106094 0.08487,-0.15914 0.02122,-0.01061 0.02122,-0.01061 0.02122,-0.02122 0.03183,-0.04244 0.05305,-0.09548 0.07426,-0.137921 0.05305,-0.07427 0.08487,-0.14853 0.127312,-0.222796 0.106093,-0.169749 0.190967,-0.350107 0.286451,-0.541075 0.09548,-0.190968 0.180359,-0.392545 0.265233,-0.594122 0.08488,-0.190968 0.15914,-0.392545 0.244015,-0.604731 0.07426,-0.212187 0.14853,-0.424373 0.222795,-0.647169 0.07427,-0.222795 0.148531,-0.4562 0.222796,-0.689605 0.06366,-0.233406 0.137921,-0.47742 0.201577,-0.732044 0.137921,-0.509247 0.265233,-1.050322 0.381936,-1.623226 0.08487,-0.424372 0.169749,-0.859354 0.244014,-1.315555 0.04244,-0.297061 0.09548,-0.594122 0.137921,-0.912402 0.04244,-0.286451 0.08487,-0.572903 0.127312,-0.880573 0.07426,-0.594122 0.137921,-1.220072 0.201577,-1.856631 h 1.623226 c 1.24129,0 2.376488,-0.286452 3.331327,-0.869965 0.965448,-0.583512 1.718709,-1.38982 2.259785,-2.440143 0.541075,-1.060932 0.816917,-2.281004 0.816917,-3.638997 0,-1.389821 -0.254623,-2.631111 -0.795699,-3.692043 C 97.64834,71.701043 96.895078,70.873516 95.940239,70.290004 94.974791,69.72771 93.850203,69.42004 92.555866,69.42004 h -1.474695 c -0.201578,-2.567456 -0.530466,-4.83785 -0.94423,-6.694481 -0.09548,-0.403154 -0.190968,-0.78509 -0.286452,-1.145807 -0.07426,-0.286451 -0.159139,-0.562294 -0.244014,-0.827527 -0.169749,-0.572903 -0.360717,-1.071541 -0.562294,-1.527742 -0.127312,-0.286452 -0.265233,-0.551685 -0.413763,-0.795699 -0.434982,-0.753262 -0.923011,-1.283728 -1.485305,-1.633835 -0.09548,-0.06366 -0.190968,-0.116703 -0.286452,-0.15914 -0.297061,-0.14853 -0.604731,-0.254624 -0.93362,-0.31828 -0.106093,-0.02122 -0.222796,-0.04244 -0.339498,-0.05305 -0.03183,0 -0.05305,-0.01061 -0.08487,-0.01061 h 3.405592 c 0.08487,0 0.15914,0.01061 0.233405,0.01061 0.30767,0.01061 0.615341,0.03183 0.912402,0.05305 0.700215,0.05305 1.357992,0.127312 1.994552,0.222796 0.190967,0.03183 0.371326,0.06366 0.551684,0.09548 3.182796,0.583513 5.62294,1.86724 7.532612,4.116416 2.73721,3.150968 4.57262,8.338926 4.57262,14.439285 z"
       id="path128"
       style="stroke-width:1.06093" /><path
       class="st8"
       d="m 83.633428,83.413733 h 7.299212 c -0.06366,0.636559 -0.127312,1.262509 -0.201577,1.856631 -0.04244,0.30767 -0.08488,0.594122 -0.127312,0.880573 -0.04244,0.31828 -0.09548,0.615341 -0.137921,0.912402 -0.07426,0.456201 -0.15914,0.891183 -0.244014,1.315555 -0.116703,0.572904 -0.244015,1.113979 -0.381936,1.623226 -0.06366,0.254624 -0.137921,0.498638 -0.201577,0.732044 -0.07426,0.233405 -0.14853,0.46681 -0.222796,0.689605 -0.07427,0.222796 -0.14853,0.434982 -0.222795,0.647169 -0.08487,0.212186 -0.15914,0.413763 -0.244015,0.604731 -0.08487,0.201577 -0.169749,0.403154 -0.265233,0.594122 -0.09548,0.190968 -0.180358,0.371326 -0.286451,0.541075 -0.04244,0.07427 -0.07427,0.148531 -0.127312,0.222796 -0.02122,0.05305 -0.05305,0.09548 -0.07426,0.137921 0,0.01061 0,0.01061 -0.02122,0.02122 -0.03183,0.05305 -0.06366,0.09548 -0.09548,0.14853 -0.05305,0.09548 -0.116703,0.190968 -0.180358,0.275843 -0.08487,0.137921 -0.180359,0.265233 -0.286452,0.381935 -0.03183,0.05305 -0.07427,0.106093 -0.116703,0.148531 -0.03183,0.03183 -0.05305,0.06366 -0.09548,0.09548 -0.01061,0.03183 -0.04244,0.06365 -0.07427,0.09548 -0.01061,0.01061 -0.02122,0.03183 -0.04244,0.05305 -0.02122,0.02122 -0.05305,0.04244 -0.07426,0.06366 -0.04244,0.05305 -0.08487,0.09548 -0.137921,0.14853 -0.201577,0.180359 -0.403155,0.339499 -0.615341,0.46681 -0.08487,0.06366 -0.190968,0.106094 -0.275842,0.15914 -0.01061,0 -0.01061,0.01061 -0.02122,0.01061 h -0.01061 c -0.106093,0.05305 -0.212187,0.106093 -0.328889,0.137921 -0.106093,0.04244 -0.222796,0.08487 -0.339498,0.106093 h -0.01061 c -0.02122,0.02122 -0.04244,0.02122 -0.06366,0.02122 -0.04244,0 -0.06366,0.03183 -0.116702,0.03183 -0.636559,-0.05305 -1.220072,-0.116703 -1.739929,-0.244015 V 56.253874 h 1.952115 c 0.03183,0 0.05305,0.01061 0.08487,0.01061 0.116702,0.01061 0.233405,0.03183 0.339498,0.05305 0.328889,0.06366 0.636559,0.16975 0.93362,0.31828 0.09548,0.04244 0.190968,0.09548 0.286452,0.15914 0.562294,0.350107 1.050323,0.880573 1.485305,1.633835 0.14853,0.244014 0.286451,0.498638 0.413763,0.795699 0.201577,0.456201 0.392545,0.954839 0.562294,1.527742 0.08487,0.265233 0.169749,0.541076 0.244014,0.827527 0.09548,0.360717 0.190968,0.742653 0.286452,1.145807 0.413764,1.856631 0.753262,4.127025 0.94423,6.694481 h -7.447743 z"
       id="path130"
       style="stroke-width:1.06093" /><g
       id="g139"
       transform="matrix(1.060932,0,0,1.060932,-272.90338,-436.40051)">
			
				<linearGradient
   id="SVGID_00000046324855337692279290000002918536192109352367_"
   gradientUnits="userSpaceOnUse"
   x1="335.97879"
   y1="483.36511"
   x2="343.0787"
   y2="483.36511">
				<stop
   offset="0"
   style="stop-color:#2CAAE1"
   id="stop132" />
				<stop
   offset="1"
   style="stop-color:#143D6A"
   id="stop134" />
			</linearGradient>
			<path
   style="fill:url(#SVGID_00000046324855337692279290000002918536192109352367_)"
   d="m 336.06,476.77 v 13.19 h 6.88 c -0.06,0.6 -0.12,1.19 -0.19,1.75 -0.04,0.29 -0.08,0.56 -0.12,0.83 -0.04,0.3 -0.09,0.58 -0.13,0.86 -0.07,0.43 -0.15,0.84 -0.23,1.24 -0.11,0.54 -0.23,1.05 -0.36,1.53 -0.06,0.24 -0.13,0.47 -0.19,0.69 -0.07,0.22 -0.14,0.44 -0.21,0.65 -0.07,0.21 -0.14,0.41 -0.21,0.61 -0.08,0.2 -0.15,0.39 -0.23,0.57 -0.08,0.19 -0.16,0.38 -0.25,0.56 -0.09,0.18 -0.17,0.35 -0.27,0.51 -0.04,0.07 -0.07,0.14 -0.12,0.21 -0.02,0.05 -0.05,0.09 -0.07,0.13 0,0.01 0,0.01 -0.02,0.02 -0.03,0.05 -0.06,0.09 -0.09,0.14 -0.05,0.09 -0.11,0.18 -0.17,0.26 -0.08,0.13 -0.17,0.25 -0.27,0.36 -0.03,0.05 -0.07,0.1 -0.11,0.14 0,0 0,0 0,0.01 -0.03,0.03 -0.06,0.05 -0.09,0.08 -0.01,0.03 -0.04,0.06 -0.07,0.09 -0.03,0.04 -0.07,0.07 -0.11,0.11 -0.04,0.05 -0.08,0.09 -0.13,0.14 -0.19,0.17 -0.38,0.32 -0.58,0.44 -0.08,0.06 -0.18,0.1 -0.26,0.15 -0.01,0 -0.01,0.01 -0.02,0.01 h -0.01 c -0.1,0.05 -0.2,0.1 -0.31,0.13 -0.1,0.04 -0.21,0.08 -0.32,0.1 h -0.01 c -0.02,0.02 -0.04,0.02 -0.06,0.02 -0.04,0 -0.06,0.03 -0.11,0.03 -0.15,0.02 -0.33,0.04 -0.51,0.04 -0.42,0 -0.82,-0.09 -1.13,-0.27 v -37.74 h 1.84 c 0.03,0 0.05,0.01 0.08,0.01 0.11,0.01 0.22,0.03 0.32,0.05 0.31,0.06 0.6,0.16 0.88,0.3 0.09,0.04 0.18,0.09 0.27,0.15 0.53,0.33 0.99,0.83 1.4,1.54 0.14,0.23 0.27,0.48 0.39,0.75 0.19,0.43 0.37,0.9 0.53,1.44 0.08,0.25 0.16,0.51 0.23,0.78 0.09,0.34 0.18,0.7 0.27,1.08 0.39,1.75 0.7,3.89 0.89,6.31 z"
   id="path137" />
		</g><path
       class="st2"
       d="M 146.4406,111.9528 C 140.78583,30.473226 94.136655,23.874229 68.907692,26.409856 c -2.694768,0.116703 -5.347098,0.445592 -7.914553,0.965448 -2.578065,0.488029 -5.071255,1.177635 -7.468961,2.047599 -0.350108,0.116703 -0.583513,0.190968 -0.678997,0.212187 2.365879,-1.474696 4.859069,-2.747814 7.394696,-3.829965 23.945236,-10.566883 52.940503,-6.004875 72.557143,13.611758 19.61663,19.616632 24.15742,48.590685 13.64358,72.535917 z"
       id="path141"
       style="stroke-width:1.06093" /><path
       class="st8"
       d="m 146.4406,111.9528 v 0.0212 c -3.17218,7.23556 -7.72358,13.9937 -13.64358,19.90309 -6.66266,6.66265 -14.38624,11.57476 -22.6509,14.74695 13.61176,-17.79183 20.23197,-33.40875 22.34323,-46.925021 2.74781,-17.63269 -2.18552,-31.711258 -9.31499,-42.373624 -1.22007,-1.835413 -2.51441,-3.564732 -3.85118,-5.209176 -4.20129,-5.166739 -8.78452,-9.314983 -12.8691,-12.48717 -0.0212,-0.02122 -0.0424,-0.04244 -0.0743,-0.07427 C 97.032999,31.34319 84.758016,26.335591 71.326617,26.335591 c -0.816918,0 -1.623226,0.02122 -2.440144,0.07427 25.250182,-2.535627 71.899357,4.06337 77.554127,85.542949 z"
       id="path143"
       style="stroke-width:1.06093" /><path
       class="st2"
       d="M 146.4406,111.9528 C 140.78583,30.473226 94.136655,23.874229 68.907692,26.409856 c -2.694768,0.116703 -5.347098,0.445592 -7.914553,0.965448 -2.578065,0.488029 -5.071255,1.177635 -7.468961,2.047599 -0.350108,0.116703 -0.583513,0.190968 -0.678997,0.212187 2.365879,-1.474696 4.859069,-2.747814 7.394696,-3.829965 23.945236,-10.566883 52.940503,-6.004875 72.557143,13.611758 19.61663,19.616632 24.15742,48.590685 13.64358,72.535917 z"
       id="path145"
       style="stroke-width:1.06093" /><path
       class="st8"
       d="m 146.4406,111.9528 v 0.0212 c -3.17218,7.23556 -7.72358,13.9937 -13.64358,19.90309 -6.66266,6.66265 -14.38624,11.57476 -22.6509,14.74695 13.61176,-17.79183 20.23197,-33.40875 22.34323,-46.925021 2.74781,-17.63269 -2.18552,-31.711258 -9.31499,-42.373624 -1.22007,-1.835413 -2.51441,-3.564732 -3.85118,-5.209176 -4.20129,-5.166739 -8.78452,-9.314983 -12.8691,-12.48717 -0.0212,-0.02122 -0.0424,-0.04244 -0.0743,-0.07427 C 97.032999,31.34319 84.758016,26.335591 71.326617,26.335591 c -0.816918,0 -1.623226,0.02122 -2.440144,0.07427 25.250182,-2.535627 71.899357,4.06337 77.554127,85.542949 z"
       id="path147"
       style="stroke-width:1.06093" /><path
       style="mix-blend-mode:overlay;fill:url(#SVGID_00000036229065875294729080000016946781592439197834_);stroke-width:1.06093"
       d="m 114.37924,75.19151 c 0,6.110968 -2.02638,11.298926 -5.72904,14.81061 -4.29677,4.042151 -10.471394,6.110969 -17.675123,6.503514 0,0 0,0 -0.03183,0 -0.636559,0.04244 -1.294337,0.06366 -1.952114,0.06366 -0.212187,0.01061 -0.413764,0.01061 -0.62595,0.01061 -0.350108,0 -0.700215,0 -1.029104,-0.02122 0.413763,0 0.869964,-0.02122 1.283727,-0.05305 0.03183,0 0.03183,0 0.03183,0 0.106093,-0.01061 0.201577,-0.02122 0.307671,-0.03183 4.816631,-0.445592 8.933047,-2.514409 11.829393,-6.471686 2.52502,-3.511684 3.91484,-8.699642 3.91484,-14.81061 0,-6.100359 -1.83541,-11.288317 -4.57262,-14.439285 -2.546236,-3.002437 -6.026093,-4.275556 -10.991255,-4.487742 -0.07426,0 -0.14853,-0.01061 -0.233405,-0.01061 h 2.440144 c 7.415914,0.180358 12.603876,1.453476 16.359566,4.498351 4.02094,3.150968 6.67327,8.338926 6.67327,14.439285 z"
       id="path156" /><path
       style="mix-blend-mode:overlay;fill:url(#SVGID_00000130605225519342996460000013297456156186666627_);stroke-width:1.06093"
       d="m 104.70354,75.19151 c 0,6.110968 -1.38982,11.298926 -3.91484,14.81061 -0.36072,0.498638 -0.74265,0.965449 -1.145808,1.400431 0,0.01061 -0.01061,0.01061 -0.02122,0.02122 -0.212186,0.222796 -0.413763,0.445592 -0.62595,0.647169 -0.668387,0.647168 -1.368602,1.209462 -2.121864,1.71871 -0.212186,0.137921 -0.434982,0.275842 -0.657778,0.403154 -0.551684,0.339498 -1.113978,0.62595 -1.7081,0.880573 -0.201577,0.09548 -0.403154,0.180359 -0.604731,0.254624 -0.47742,0.190968 -0.986667,0.360717 -1.495914,0.509247 -0.265233,0.07427 -0.541076,0.148531 -0.816918,0.212187 -0.286452,0.06366 -0.572903,0.127312 -0.859355,0.180358 -0.286452,0.05305 -0.583513,0.106093 -0.880574,0.137921 -0.297061,0.04244 -0.594121,0.07427 -0.891182,0.106094 -0.106094,0.01061 -0.201578,0.02122 -0.307671,0.03183 0,0 0,0 -0.03183,0 -0.413763,0.03183 -0.869964,0.05305 -1.283727,0.05305 -0.16975,0.02122 -0.307671,0.02122 -0.47742,0.02122 -0.530466,0 -1.071541,-0.02122 -1.570179,-0.04244 0.05305,0 0.07426,-0.03183 0.116702,-0.03183 0.02122,0 0.04244,0 0.06366,-0.02122 h 0.01061 c 0.116702,-0.02122 0.233405,-0.06366 0.339498,-0.106093 0.116702,-0.03183 0.222796,-0.08487 0.328889,-0.137921 h 0.01061 c 0.01061,0 0.01061,-0.01061 0.02122,-0.01061 0.08487,-0.05305 0.190967,-0.09548 0.275842,-0.15914 0.212186,-0.127311 0.413764,-0.286451 0.615341,-0.46681 0.07426,-0.07426 0.137921,-0.137921 0.212186,-0.212186 0.02122,-0.02122 0.03183,-0.04244 0.04244,-0.05305 0.06366,-0.06366 0.116703,-0.116702 0.169749,-0.180358 0,-0.01061 0,-0.01061 0,-0.01061 0.05305,-0.05305 0.08487,-0.09548 0.116703,-0.148531 0.106093,-0.116702 0.201577,-0.244014 0.286452,-0.381935 0.07426,-0.08487 0.127311,-0.169749 0.190967,-0.265233 0.03183,-0.05305 0.06366,-0.106094 0.08487,-0.15914 0.02122,-0.01061 0.02122,-0.01061 0.02122,-0.02122 0.03183,-0.04244 0.05305,-0.09548 0.07426,-0.137921 0.05305,-0.07427 0.08487,-0.14853 0.127312,-0.222796 0.106093,-0.169749 0.190967,-0.350107 0.286451,-0.541075 0.09548,-0.190968 0.180359,-0.392545 0.265233,-0.594122 0.08488,-0.190968 0.15914,-0.392545 0.244015,-0.604731 0.07426,-0.212187 0.14853,-0.424373 0.222795,-0.647169 0.07427,-0.222795 0.148531,-0.4562 0.222796,-0.689605 0.06366,-0.233406 0.137921,-0.47742 0.201577,-0.732044 0.137921,-0.509247 0.265233,-1.050322 0.381936,-1.623226 0.08487,-0.424372 0.169749,-0.859354 0.244014,-1.315555 0.04244,-0.297061 0.09548,-0.594122 0.137921,-0.912402 0.04244,-0.286451 0.08487,-0.572903 0.127312,-0.880573 0.07426,-0.594122 0.137921,-1.220072 0.201577,-1.856631 h 1.623226 c 1.24129,0 2.376488,-0.286452 3.331327,-0.869965 0.965448,-0.583512 1.718709,-1.38982 2.259785,-2.440143 0.541075,-1.060932 0.816917,-2.281004 0.816917,-3.638997 0,-1.389821 -0.254623,-2.631111 -0.795699,-3.692043 C 97.64834,71.701043 96.895078,70.873516 95.940239,70.290004 94.974791,69.72771 93.850203,69.42004 92.555866,69.42004 h -1.474695 c -0.201578,-2.567456 -0.530466,-4.83785 -0.94423,-6.694481 -0.09548,-0.403154 -0.190968,-0.78509 -0.286452,-1.145807 -0.07426,-0.286451 -0.159139,-0.562294 -0.244014,-0.827527 -0.169749,-0.572903 -0.360717,-1.071541 -0.562294,-1.527742 -0.127312,-0.286452 -0.265233,-0.551685 -0.413763,-0.795699 -0.434982,-0.753262 -0.923011,-1.283728 -1.485305,-1.633835 -0.09548,-0.06366 -0.190968,-0.116703 -0.286452,-0.15914 -0.297061,-0.14853 -0.604731,-0.254624 -0.93362,-0.31828 -0.106093,-0.02122 -0.222796,-0.04244 -0.339498,-0.05305 -0.03183,0 -0.05305,-0.01061 -0.08487,-0.01061 h 3.405592 c 0.08487,0 0.15914,0.01061 0.233405,0.01061 0.30767,0.01061 0.615341,0.03183 0.912402,0.05305 0.700215,0.05305 1.357992,0.127312 1.994552,0.222796 0.190967,0.03183 0.371326,0.06366 0.551684,0.09548 3.182796,0.583513 5.62294,1.86724 7.532612,4.116416 2.73721,3.150968 4.57262,8.338926 4.57262,14.439285 z"
       id="path165" /><path
       style="mix-blend-mode:overlay;fill:url(#SVGID_00000148657056044188378030000004679674107016327838_);stroke-width:1.06093"
       d="M 146.4406,111.9528 C 140.78583,30.473226 94.136655,23.874229 68.907692,26.409856 c -2.694768,0.116703 -5.347098,0.445592 -7.914553,0.965448 -2.578065,0.488029 -5.071255,1.177635 -7.468961,2.047599 -0.350108,0.116703 -0.583513,0.190968 -0.678997,0.212187 2.365879,-1.474696 4.859069,-2.747814 7.394696,-3.829965 23.945236,-10.566883 52.940503,-6.004875 72.557143,13.611758 19.61663,19.616632 24.15742,48.590685 13.64358,72.535917 z"
       id="path174" /><path
       style="mix-blend-mode:overlay;fill:url(#SVGID_00000103226488600807063870000012696793835588895389_);stroke-width:1.06093"
       d="m 146.4406,111.9528 v 0.0212 c -3.17218,7.23556 -7.72358,13.9937 -13.64358,19.90309 -6.66266,6.66265 -14.38624,11.57476 -22.6509,14.74695 13.61176,-17.79183 20.23197,-33.40875 22.34323,-46.925021 2.74781,-17.63269 -2.18552,-31.711258 -9.31499,-42.373624 -1.22007,-1.835413 -2.51441,-3.564732 -3.85118,-5.209176 -4.20129,-5.166739 -8.78452,-9.314983 -12.8691,-12.48717 -0.0212,-0.02122 -0.0424,-0.04244 -0.0743,-0.07427 C 97.032999,31.34319 84.758016,26.335591 71.326617,26.335591 c -0.816918,0 -1.623226,0.02122 -2.440144,0.07427 25.250182,-2.535627 71.899357,4.06337 77.554127,85.542949 z"
       id="path183" /><path
       style="fill:url(#SVGID_00000018219399065841400670000004343771207694022566_);stroke-width:1.06093"
       d="m 132.49996,99.699039 c -2.11126,13.526881 -8.73147,29.133191 -22.34323,46.925021 -2.69477,1.08215 -5.47441,1.92029 -8.26466,2.57807 -16.26409,3.92544 -33.758859,1.52774 -48.527032,-7.23556 21.154984,-3.05548 36.273265,-9.29376 46.946242,-17.15527 7.37348,-5.40014 12.65692,-11.55355 16.35957,-17.9828 0.65778,-1.08215 1.24129,-2.1643 1.78237,-3.26767 2.01577,-3.829963 3.54351,-7.93577 4.50896,-12.232545 0.2334,-0.912401 0.42437,-1.856631 0.56229,-2.822079 0.0955,-0.350107 0.15914,-0.732043 0.21219,-1.103369 0.40315,-2.631111 0.61534,-5.325879 0.61534,-8.073692 0,-9.251328 -2.36588,-17.961579 -6.54595,-25.515415 -2.93878,-5.378925 -6.77936,-10.163729 -11.34137,-14.20588 4.08459,3.172187 8.65721,7.320431 12.86911,12.48717 1.33677,1.644445 2.63111,3.384373 3.85118,5.209176 7.12947,10.683585 12.05219,24.762153 9.31499,42.394843 z"
       id="path190" /><path
       style="fill:url(#SVGID_00000074423485840205225980000003904873128421045404_);stroke-width:1.06093"
       d="m 116.67085,106.83911 c -3.70265,6.42925 -8.98609,12.58265 -16.35957,17.9828 -10.683586,7.8615 -25.801867,14.09978 -46.946242,17.15527 -0.94423,-0.51986 -1.856631,-1.10337 -2.769033,-1.68688 -0.233405,-0.15914 -0.46681,-0.31828 -0.700215,-0.47742 -1.591398,-1.08215 -3.140358,-2.23857 -4.657491,-3.46925 -1.686882,-1.41104 -3.331327,-2.88573 -4.901506,-4.45591 -3.193405,-3.19341 -5.994266,-6.62022 -8.381363,-10.25922 v -0.0318 c -0.15914,-0.23341 -0.30767,-0.46681 -0.456201,-0.70022 -3.936057,-6.12158 -6.747527,-12.7524 -8.4238,-19.60602 2.334051,5.16674 5.495628,9.88788 9.283155,13.99369 0.753262,0.82753 1.538352,1.62323 2.355269,2.39771 0.190968,0.19096 0.392545,0.37132 0.594122,0.56229 1.814194,1.66566 3.734481,3.21462 5.750252,4.62566 0.678996,0.46681 1.368602,0.93362 2.047599,1.358 0.657777,0.42437 1.315555,0.80631 1.973333,1.17763 0.116703,0.0743 0.233405,0.13792 0.350108,0.19097 0.541075,0.32889 1.103369,0.62595 1.686881,0.9124 0.848746,0.44559 1.686882,0.84875 2.556847,1.22007 0.381935,0.15914 0.753261,0.35011 1.156415,0.48803 0.371327,0.19097 0.774481,0.32889 1.145807,0.47742 0.986667,0.39255 1.973334,0.74265 2.981219,1.07154 0.445591,0.14853 0.912401,0.30767 1.389821,0.42437 0.562294,0.19097 1.124588,0.32889 1.7081,0.47742 0.254624,0.0743 0.509248,0.13793 0.774481,0.20158 0.318279,0.0743 0.647168,0.14853 0.965448,0.21219 3.713262,0.84874 7.585664,1.29433 11.553549,1.29433 1.792975,0 3.575341,-0.0849 5.325879,-0.27584 8.635986,-0.84874 16.656632,-3.78753 23.563296,-8.3177 6.67327,-4.318 12.30681,-10.14251 16.43384,-16.94309 z"
       id="path197" /></g><rect
     x="177.79114"
     y="20.267063"
     class="st1"
     width="4.2755561"
     height="134.69592"
     id="rect201"
     style="stroke-width:1.06093" /></g>
</svg>
